<?xml version="1.0" encoding="UTF-8"?>
<svg xmlns="http://www.w3.org/2000/svg" xmlns:xlink="http://www.w3.org/1999/xlink" width="131px" height="150px" viewBox="0 0 131 149" version="1.1">
<g id="surface1">
<path style="fill:#ffffff" d="M 93.570312 13.96875 C 93.570312 6.253906 87.289062 0 79.535156 0 C 71.785156 0 65.5 6.253906 65.5 13.96875 C 65.5 21.683594 71.785156 27.9375 79.535156 27.9375 C 87.289062 27.9375 93.570312 21.683594 93.570312 13.96875 Z M 36.757812 51.074219 C 39.652344 48.191406 43.597656 46.5625 47.722656 46.5625 C 48.277344 46.5625 48.832031 46.589844 49.359375 46.648438 L 40.234375 73.917969 C 37.515625 82.066406 40.734375 91.03125 48.074219 95.597656 L 73.277344 111.285156 L 65.851562 137.125 C 64.417969 142.074219 67.3125 147.226562 72.285156 148.652344 C 77.253906 150.078125 82.429688 147.195312 83.863281 142.25 L 92.253906 113.03125 C 93.980469 107.035156 91.496094 100.632812 86.203125 97.34375 L 69.59375 87.015625 L 78.628906 63.035156 L 80.121094 66.613281 C 84.507812 77.03125 94.710938 83.8125 106.058594 83.8125 L 112.285156 83.8125 C 117.460938 83.8125 121.644531 79.652344 121.644531 74.5 C 121.644531 69.347656 117.460938 65.1875 112.285156 65.1875 L 106.058594 65.1875 C 102.285156 65.1875 98.863281 62.917969 97.429688 59.453125 L 95.589844 55.089844 C 91.320312 44.875 82.695312 37.074219 72.050781 33.816406 L 57.808594 29.449219 C 54.5625 28.460938 51.171875 27.9375 47.75 27.9375 C 38.6875 27.9375 29.972656 31.515625 23.566406 37.917969 L 16.785156 44.640625 C 13.128906 48.28125 13.128906 54.1875 16.785156 57.824219 C 20.441406 61.460938 26.375 61.460938 30.03125 57.824219 L 36.785156 51.101562 Z M 26.667969 102.4375 L 9.355469 102.4375 C 4.179688 102.4375 0 106.597656 0 111.75 C 0 116.902344 4.179688 121.0625 9.355469 121.0625 L 29.707031 121.0625 C 35.265625 121.0625 40.292969 117.804688 42.546875 112.769531 L 45.910156 105.230469 L 43.128906 103.484375 C 38.011719 100.3125 34.210938 95.6875 32.046875 90.417969 Z M 26.667969 102.4375 "/>
</g>
</svg>
